<svg xmlns="http://www.w3.org/2000/svg" xmlns:xlink="http://www.w3.org/1999/xlink" width="18.133380889892578" height="17.000041961669922" viewBox="220 713 18.133380889892578 17.000041961669922"><g transform="matrix(1,0,0,1,220,697)"><path d="M 17.60213088989258 18.1250057220459 L 15.9729585647583 18.1250057220459 L 15.9729585647583 17.59375381469727 C 15.9729585647583 16.71495819091797 15.25799942016602 16 14.37920475006104 16 C 13.50040912628174 16 12.78545093536377 16.71495819091797 12.78545093536377 17.59375381469727 L 12.78545093536377 18.1250057220459 L 10.66044521331787 18.1250057220459 L 10.66044521331787 17.59375381469727 C 10.66044521331787 16.71495819091797 9.945487022399902 16 9.066690444946289 16 C 8.187894821166992 16 7.472936153411865 16.71495819091797 7.472936153411865 17.59375381469727 L 7.472936153411865 18.1250057220459 L 5.347930908203125 18.1250057220459 L 5.347930908203125 17.59375381469727 C 5.347930908203125 16.71495819091797 4.632972717285156 16 3.754176616668701 16 C 2.875380277633667 16 2.160422325134277 16.71495819091797 2.160422325134277 17.59375381469727 L 2.160422325134277 18.1250057220459 L 0.5312513709068298 18.1250057220459 C 0.2378589659929276 18.1250057220459 0 18.36286354064941 0 18.6562557220459 L 0 32.46879196166992 C 0 32.76218414306641 0.2378589659929276 33.00004196166992 0.5312513709068298 33.00004196166992 L 17.60213088989258 33.00004196166992 C 17.89552307128906 33.00004196166992 18.13338088989258 32.76218414306641 18.13338088989258 32.46879196166992 L 18.13338088989258 18.6562557220459 C 18.13338088989258 18.36286354064941 17.89552307128906 18.1250057220459 17.60213088989258 18.1250057220459 Z M 13.8479528427124 17.59375381469727 C 13.8479528427124 17.30082130432129 14.08627414703369 17.06250190734863 14.37920475006104 17.06250190734863 C 14.6721363067627 17.06250190734863 14.91045665740967 17.30082130432129 14.91045665740967 17.59375381469727 L 14.91045665740967 18.1250057220459 L 13.8479528427124 18.1250057220459 L 13.8479528427124 17.59375381469727 Z M 8.535439491271973 17.59375381469727 C 8.535439491271973 17.30082130432129 8.773758888244629 17.06250190734863 9.066690444946289 17.06250190734863 C 9.359622001647949 17.06250190734863 9.597942352294922 17.30082130432129 9.597942352294922 17.59375381469727 L 9.597942352294922 18.1250057220459 L 8.535439491271973 18.1250057220459 L 8.535439491271973 17.59375381469727 Z M 3.222925186157227 17.59375381469727 C 3.222925186157227 17.30082130432129 3.461244821548462 17.06250190734863 3.754176616668701 17.06250190734863 C 4.04710865020752 17.06250190734863 4.285428047180176 17.30082130432129 4.285428047180176 17.59375381469727 L 4.285428047180176 18.1250057220459 L 3.222925186157227 18.1250057220459 L 3.222925186157227 17.59375381469727 Z M 4.285428047180176 19.18750762939453 L 4.285428047180176 19.71875953674316 C 4.285428047180176 20.01215171813965 4.523286819458008 20.25000953674316 4.81667947769165 20.25000953674316 C 5.110071659088135 20.25000953674316 5.347930908203125 20.01215171813965 5.347930908203125 19.71875953674316 L 5.347930908203125 19.18750762939453 L 9.597942352294922 19.18750762939453 L 9.597942352294922 19.71875953674316 C 9.597942352294922 20.01215171813965 9.835801124572754 20.25000953674316 10.12919330596924 20.25000953674316 C 10.42258548736572 20.25000953674316 10.66044521331787 20.01215171813965 10.66044521331787 19.71875953674316 L 10.66044521331787 19.18750762939453 L 14.91045665740967 19.18750762939453 L 14.91045665740967 19.71875953674316 C 14.91045665740967 20.01215171813965 15.1483154296875 20.25000953674316 15.44170761108398 20.25000953674316 C 15.73510074615479 20.25000953674316 15.9729585647583 20.01215171813965 15.9729585647583 19.71875953674316 L 15.9729585647583 19.18750762939453 L 17.07087898254395 19.18750762939453 L 17.07087898254395 21.31251335144043 L 1.06250274181366 21.31251335144043 L 1.06250274181366 19.18750762939453 L 4.285428047180176 19.18750762939453 Z M 1.06250274181366 31.93754196166992 L 1.06250274181366 22.37501525878906 L 17.07087898254395 22.37501525878906 L 17.07087898254395 31.93754196166992 L 1.06250274181366 31.93754196166992 Z" fill="#7a859a" fill-rule="evenodd"/><path d="M 93.65625762939453 226 L 91.53125 226 C 91.23786163330078 226 91 226.2378540039062 91 226.53125 L 91 228.65625 C 91 228.9496459960938 91.23786163330078 229.1875 91.53125 229.1875 L 93.65625762939453 229.1875 C 93.94964599609375 229.1875 94.18750762939453 228.9496459960938 94.18750762939453 228.65625 L 94.18750762939453 226.53125 C 94.18750762939453 226.2378540039062 93.94964599609375 226 93.65625762939453 226 Z M 93.125 228.125 L 92.0625 228.125 L 92.0625 227.0625 L 93.125 227.0625 L 93.125 228.125 Z" transform="matrix(1,0,0,1,-87.77706909179688,-202.56248474121094)" fill="#7a859a" fill-rule="evenodd"/><path d="M 213.65625 226 L 211.53125 226 C 211.2378540039062 226 211 226.2378540039062 211 226.53125 L 211 228.65625 C 211 228.9496459960938 211.2378540039062 229.1875 211.53125 229.1875 L 213.65625 229.1875 C 213.9496307373047 229.1875 214.1875 228.9496459960938 214.1875 228.65625 L 214.1875 226.53125 C 214.1875 226.2378540039062 213.9496307373047 226 213.65625 226 Z M 213.1250152587891 228.125 L 212.0625152587891 228.125 L 212.0625152587891 227.0625 L 213.1250152587891 227.0625 L 213.1250152587891 228.125 Z" transform="matrix(1,0,0,1,-203.5270538330078,-202.56248474121094)" fill="#7a859a" fill-rule="evenodd"/><path d="M 333.6562805175781 226 L 331.5312805175781 226 C 331.2378540039062 226 331.0000305175781 226.2378540039062 331.0000305175781 226.53125 L 331.0000305175781 228.65625 C 331.0000305175781 228.9496459960938 331.2378540039062 229.1875 331.5312805175781 229.1875 L 333.6562805175781 229.1875 C 333.9496765136719 229.1875 334.1875305175781 228.9496459960938 334.1875305175781 228.65625 L 334.1875305175781 226.53125 C 334.1875305175781 226.2378540039062 333.9496765136719 226 333.6562805175781 226 Z M 333.1250305175781 228.125 L 332.0625305175781 228.125 L 332.0625305175781 227.0625 L 333.1250305175781 227.0625 L 333.1250305175781 228.125 Z" transform="matrix(1,0,0,1,-319.2770690917969,-202.56248474121094)" fill="#7a859a" fill-rule="evenodd"/><path d="M 93.65625762939453 346 L 91.53125 346 C 91.23786163330078 346 91 346.2378540039062 91 346.5312194824219 L 91 348.65625 C 91 348.9496459960938 91.23786163330078 349.1875305175781 91.53125 349.1875305175781 L 93.65625762939453 349.1875305175781 C 93.94964599609375 349.1875305175781 94.18750762939453 348.9496459960938 94.18750762939453 348.65625 L 94.18750762939453 346.5312194824219 C 94.18750762939453 346.2378540039062 93.94964599609375 346 93.65625762939453 346 Z M 93.125 348.125 L 92.0625 348.125 L 92.0625 347.0625 L 93.125 347.0625 L 93.125 348.125 Z" transform="matrix(1,0,0,1,-87.77706909179688,-318.3124694824219)" fill="#7a859a" fill-rule="evenodd"/><path d="M 213.65625 346 L 211.53125 346 C 211.2378540039062 346 211 346.2378540039062 211 346.5312194824219 L 211 348.65625 C 211 348.9496459960938 211.2378540039062 349.1875305175781 211.53125 349.1875305175781 L 213.65625 349.1875305175781 C 213.9496307373047 349.1875305175781 214.1875 348.9496459960938 214.1875 348.65625 L 214.1875 346.5312194824219 C 214.1875 346.2378540039062 213.9496307373047 346 213.65625 346 Z M 213.1250152587891 348.125 L 212.0625152587891 348.125 L 212.0625152587891 347.0625 L 213.1250152587891 347.0625 L 213.1250152587891 348.125 Z" transform="matrix(1,0,0,1,-203.5270538330078,-318.3124694824219)" fill="#7a859a" fill-rule="evenodd"/><path d="M 333.6562805175781 346 L 331.5312805175781 346 C 331.2378540039062 346 331.0000305175781 346.2378540039062 331.0000305175781 346.5312194824219 L 331.0000305175781 348.65625 C 331.0000305175781 348.9496459960938 331.2378540039062 349.1875305175781 331.5312805175781 349.1875305175781 L 333.6562805175781 349.1875305175781 C 333.9496765136719 349.1875305175781 334.1875305175781 348.9496459960938 334.1875305175781 348.65625 L 334.1875305175781 346.5312194824219 C 334.1875305175781 346.2378540039062 333.9496765136719 346 333.6562805175781 346 Z M 333.1250305175781 348.125 L 332.0625305175781 348.125 L 332.0625305175781 347.0625 L 333.1250305175781 347.0625 L 333.1250305175781 348.125 Z" transform="matrix(1,0,0,1,-319.2770690917969,-318.3124694824219)" fill="#7a859a" fill-rule="evenodd"/></g></svg>