<svg xmlns="http://www.w3.org/2000/svg" xmlns:xlink="http://www.w3.org/1999/xlink" width="25.50000085876968" height="25.50000450449079" viewBox="92.25000026150751 3363.2499999596957 25.50000085876968 25.50000450449079"><g transform="matrix(1,0,0,1,93,3364)"><path d="M 7.215517997741699 9.444005012512207 C 6.676226615905762 8.580204010009766 6.774135112762451 8.338919639587402 6.774135112762451 8.338919639587402 L 8.38237476348877 5.996846675872803 C 8.81252384185791 5.414547920227051 8.751531600952148 4.603829860687256 8.239526748657227 4.092305660247803 L 4.904276371002197 0.772225022315979 C 4.419557094573975 0.2880465388298035 3.650748729705811 0.2413981556892395 3.109854221343994 0.6612342596054077 L 1.660512804985046 1.785621166229248 C 1.536925315856934 1.882134914398193 1.421363353729248 1.994734525680542 1.329876899719238 2.123420476913452 C -1.528680205345154 6.120706558227539 2.480681657791138 12.41502857208252 7.424170970916748 17.3404541015625 C 12.23123741149902 22.13076210021973 18.73962593078613 26.39990043640137 22.66873931884766 23.34845733642578 C 22.77947998046875 23.2615909576416 22.87739181518555 23.15703773498535 22.96245956420898 23.04604721069336 L 24.09400177001953 21.56455421447754 C 24.51131248474121 21.01924324035645 24.45833969116211 20.24873924255371 23.97362518310547 19.76456260681152 L 20.63998031616211 16.44609451293945 C 20.12637519836426 15.93456745147705 19.31583404541016 15.87827014923096 18.73802185058594 16.31258010864258 L 16.41073036193848 17.93884086608887 C 16.41073036193848 17.93884086608887 15.47981452941895 18.27663803100586 10.96165561676025 13.77426338195801 C 9.348602294921875 12.16569519042969 8.353483200073242 11.01556968688965 7.73875617980957 10.20003128051758 C 7.518867969512939 9.905664443969727 7.348734378814697 9.656335830688477 7.215517997741699 9.444005012512207" transform="matrix(1,0,0,1,-0.37519073486328125,-0.37514954805374146)" fill="none" stroke="#ffffff" stroke-width="1.5" stroke-linecap="square"/><path d="M 15.12482643127441 9.999552726745605 C 15.12482643127441 9.00184154510498 14.90642166137695 7.989240646362305 14.44313812255859 7.031237602233887 C 13.27997207641602 4.628792762756348 10.89241313934326 3.217437744140625 8.394001007080078 3.186000347137451" transform="matrix(1,0,0,1,4.3279266357421875,1.2861336469650269)" fill="none" stroke="#ffffff" stroke-width="1.5" stroke-linecap="square"/><path d="M 19.04782867431641 11.55155563354492 C 19.04948616027832 9.979709625244141 18.70367050170898 8.383041381835938 17.97400856018066 6.874065399169922 C 16.13411712646484 3.073499202728271 12.34844398498535 0.8480916023254395 8.394001007080078 0.815000057220459" transform="matrix(1,0,0,1,4.132833480834961,-0.08723299950361252)" fill="none" stroke="#ffffff" stroke-width="1.5" stroke-linecap="square"/></g></svg>