<svg xmlns="http://www.w3.org/2000/svg" xmlns:xlink="http://www.w3.org/1999/xlink" width="20.774700164795604" height="25.593381881713867" viewBox="1001.8114013671868 517.1099243164062 20.774700164795604 25.593381881713867"><g transform="matrix(1,0,0,1,1002.5614013671875,517.8599243164062)"><path d="M 20.7280158996582 14.11400699615479 C 20.7280158996582 16.10997009277344 19.10996627807617 17.72801208496094 17.1140022277832 17.72801208496094 C 15.1180419921875 17.72801208496094 13.49999618530273 16.10997009277344 13.49999618530273 14.11400699615479 C 13.49999618530273 12.11804676055908 15.1180419921875 10.50000095367432 17.1140022277832 10.50000095367432 C 19.10996627807617 10.50000095367432 20.7280158996582 12.11804676055908 20.7280158996582 14.11400699615479 Z" transform="matrix(1,0,0,1,-7.476651668548584,-4.476655006408691)" fill="none" stroke="#ffffff" stroke-width="1.5" stroke-linecap="round" stroke-linejoin="round"/><path d="M 15.63735008239746 3 C 10.31478881835938 3 5.999998092651367 7.314789772033691 6 12.63735198974609 C 6 14.91658210754395 6.484276294708252 16.4079647064209 7.807003498077393 18.05835914611816 L 15.63735008239746 27.09338188171387 L 23.46769523620605 18.05835914611816 C 24.79042434692383 16.4079647064209 25.27470016479492 14.91658210754395 25.27470016479492 12.63735008239746 C 25.27470016479492 7.314787864685059 20.95990943908691 3 15.63735008239746 3 Z" transform="matrix(1,0,0,1,-6,-3)" fill="none" stroke="#ffffff" stroke-width="1.5" stroke-linecap="round" stroke-linejoin="round"/></g></svg>