<svg xmlns="http://www.w3.org/2000/svg" xmlns:xlink="http://www.w3.org/1999/xlink" width="19.68663068008692" height="21.088642231641984" viewBox="124.15684270858765 682.4555069448653 19.68663068008692 21.088642231641984"><path d="M 18.59206008911133 15.53566646575928 C 17.555908203125 15.53566646575928 16.57821464538574 16.01777076721191 15.94708919525146 16.84015655517578 L 8.744734764099121 12.75296211242676 C 8.986732482910156 12.05080986022949 8.986732482910156 11.28785991668701 8.744734764099121 10.58570766448975 L 15.94678592681885 6.498115062713623 C 16.98789596557617 7.848873615264893 18.88008880615234 8.197022438049316 20.33379745483398 7.305294990539551 C 21.78750419616699 6.413565635681152 22.33469200134277 4.569063186645508 21.60243034362793 3.028851985931396 C 20.87017440795898 1.488640785217285 19.09423446655273 0.7486146688461304 17.48495101928711 1.313115954399109 C 15.8756685256958 1.877617239952087 14.95117664337158 3.564896583557129 15.34153461456299 5.225039482116699 L 8.016766548156738 9.38231086730957 C 7.078874588012695 8.384583473205566 5.626890182495117 8.060612678527832 4.353835105895996 8.565028190612793 C 3.080780267715454 9.069445610046387 2.244733333587646 10.29998970031738 2.244733333587646 11.66933536529541 C 2.244733333587646 13.0386791229248 3.080780267715454 14.26922225952148 4.353835105895996 14.77363967895508 C 5.626889228820801 15.27805614471436 7.078874588012695 14.95408535003662 8.016766548156738 13.95635795593262 L 15.34157276153564 18.11367416381836 C 15.01790714263916 19.49687767028809 15.60494136810303 20.93342208862305 16.8046875 21.69409370422363 C 18.00443267822266 22.45476722717285 19.55413436889648 22.37297248840332 20.66714096069336 21.49023056030273 C 21.78014373779297 20.60749244689941 22.21269226074219 19.11713218688965 21.74521636962891 17.77568626403809 C 21.27774620056152 16.43423652648926 20.01262855529785 15.53549194335938 18.59206008911133 15.53566646575928 Z M 18.59206008911133 2.530733108520508 C 19.65971755981445 2.530733108520508 20.52522659301758 3.396240234375 20.52522659301758 4.463897705078125 C 20.52522659301758 5.531556129455566 19.65971755981445 6.397063732147217 18.59206008911133 6.397063732147217 C 17.5244026184082 6.397063732147217 16.65889358520508 5.531556129455566 16.65889358520508 4.463897705078125 C 16.66008377075195 3.396732807159424 17.52489471435547 2.53192138671875 18.59206008911133 2.530733108520508 Z M 5.587128639221191 13.60249996185303 C 4.519470691680908 13.60249996185303 3.653963327407837 12.73699283599854 3.653963327407837 11.66933536529541 C 3.653963327407837 10.60167503356934 4.519471168518066 9.73616886138916 5.587128639221191 9.73616886138916 C 6.654787063598633 9.73616886138916 7.520294189453125 10.60167503356934 7.520294189453125 11.66933536529541 C 7.519108772277832 12.73650074005127 6.654294967651367 13.60131359100342 5.587128639221191 13.60249996185303 Z M 18.59206008911133 20.80793571472168 C 17.5244026184082 20.80793571472168 16.65889358520508 19.94243049621582 16.65889358520508 18.87477111816406 C 16.65889358520508 17.80711364746094 17.5244026184082 16.94160461425781 18.59206008911133 16.94160461425781 C 19.65971755981445 16.94160461425781 20.52522659301758 17.80711364746094 20.52522659301758 18.87477111816406 C 20.52404022216797 19.94193840026855 19.65922546386719 20.80674934387207 18.59206008911133 20.80793762207031 Z" transform="matrix(1,0,0,1,121.912109375,681.3310546875)" fill="#ffffff" fill-rule="evenodd"/></svg>