<svg xmlns="http://www.w3.org/2000/svg" xmlns:xlink="http://www.w3.org/1999/xlink" width="17.004376221609164" height="17.00245160256145" viewBox="1147.4960386289092 3046.4999768119505 17.004376221609164 17.00245160256145"><g transform="matrix(1,0,0,1,1147.99609375,3047)"><path d="M 5.877450942993164 7.362766265869141 C 5.517652988433838 6.786639213562012 5.582803726196289 6.625770092010498 5.582803726196289 6.625770092010498 L 6.655449390411377 5.064725399017334 C 6.942759990692139 4.676229476928711 6.902260303497314 4.135393142700195 6.560070991516113 3.794539451599121 L 4.336715221405029 1.580609321594238 C 4.012719631195068 1.257989406585693 3.500314950942993 1.226521372795105 3.139048337936401 1.506791830062866 L 2.173519372940063 2.256433963775635 C 2.090466499328613 2.320840120315552 2.013576507568359 2.395833730697632 1.952533721923828 2.481414794921875 C 0.04642188549041748 5.146483898162842 2.720261096954346 9.343186378479004 6.016264915466309 12.62761402130127 C 9.222463607788086 15.82234001159668 13.56235218048096 18.66827964782715 16.18219566345215 16.63374328613281 C 16.25614929199219 16.57610130310059 16.32129859924316 16.50640296936035 16.37823867797852 16.43229103088379 L 17.13305473327637 15.44472789764404 C 17.41097068786621 15.08122825622559 17.37604904174805 14.5674467086792 17.05205154418945 14.24453353881836 L 14.82898902893066 12.03119087219238 C 14.48679828643799 11.69034004211426 13.94680500030518 11.65269470214844 13.56088924407959 11.94267082214355 L 12.0095853805542 13.02669715881348 C 12.0095853805542 13.02669715881348 11.38889026641846 13.25226402282715 8.375792503356934 10.24987316131592 C 7.299917697906494 9.177905082702637 6.635787487030029 8.410324096679688 6.226686000823975 7.866253852844238 C 6.079948902130127 7.670974254608154 5.965787410736084 7.504224300384521 5.877450942993164 7.362766265869141" transform="matrix(1,0,0,1,-1.3160400390625,-1.3159178495407104)" fill="none" stroke="#7a859a" stroke-width="1" stroke-linecap="square"/><path d="M 34.73977661132812 15.80450057983398 C 34.74032592773438 15.18396186828613 34.60432052612305 14.55383586883545 34.31652069091797 13.9581298828125 C 33.59479141235352 12.46392822265625 32.11275100708008 11.58659839630127 30.56199836730957 11.56599807739258" transform="matrix(1,0,0,1,-21.849123001098633,-8.505162239074707)" fill="none" stroke="#7a859a" stroke-width="1" stroke-linecap="square"/><path d="M 37.17472839355469 9.597604751586914 C 37.17557907104492 8.620095252990723 36.96128082275391 7.62734842300415 36.50763320922852 6.68821907043457 C 35.36604309082031 4.324309349060059 33.01638793945312 2.940163135528564 30.56199836730957 2.918999671936035" transform="matrix(1,0,0,1,-21.67859649658203,-2.4659194946289062)" fill="none" stroke="#7a859a" stroke-width="1" stroke-linecap="square"/></g></svg>