<svg xmlns="http://www.w3.org/2000/svg" xmlns:xlink="http://www.w3.org/1999/xlink" width="25.68712600541955" height="25.687131066097827" viewBox="12.068665570030051 11.315513621525703 25.68712600541955 25.687131066097827"><g transform="matrix(1,0,0,1,12.818665504455566,12.065513610839844)"><path d="M 7.268851757049561 9.514714241027832 C 6.72535514831543 8.644177436828613 6.824027538299561 8.401012420654297 6.824027538299561 8.401012420654297 L 8.444806098937988 6.04067850112915 C 8.87830924987793 5.453839778900146 8.816841125488281 4.636800765991211 8.300844192504883 4.121287822723389 L 4.939589500427246 0.7753208875656128 C 4.451090812683105 0.2873673737049103 3.67628812789917 0.2403552830219269 3.131176471710205 0.6634647846221924 L 1.670534610748291 1.796618580818176 C 1.54598343372345 1.893884658813477 1.429520487785339 2.007362365722656 1.337320566177368 2.137051820755005 C -1.543524265289307 6.165504932403564 2.497098207473755 12.50890159606934 7.47913122177124 17.47273254394531 C 12.3236780166626 22.30039024353027 18.8828125 26.60281181335449 22.84256172180176 23.52758026123047 C 22.95416450500488 23.44003677368164 23.0528392791748 23.33466720581055 23.13857078552246 23.22281265258789 L 24.2789363861084 21.72976684570312 C 24.69949913024902 21.18020629882812 24.6461124420166 20.4036922454834 24.15761947631836 19.91574287414551 L 20.79798316955566 16.5713996887207 C 20.28037261962891 16.05588340759277 19.4635124206543 15.99914741516113 18.88119506835938 16.43684387207031 L 16.53575897216797 18.07578468322754 C 16.53575897216797 18.07578468322754 15.59758472442627 18.41621398925781 11.04419708251953 13.87873554229736 C 9.418567657470703 12.25762557983398 8.415689468383789 11.09853172302246 7.796169281005859 10.27663326263428 C 7.574566841125488 9.979971885681152 7.403106212615967 9.728700637817383 7.268851757049561 9.514714241027832" transform="matrix(1,0,0,1,-0.3751910924911499,-0.3751494586467743)" fill="none" stroke="#ffffff" stroke-width="1.5" stroke-linecap="square"/><path d="M 15.1773042678833 10.05267810821533 C 15.1773042678833 9.047186851501465 14.95719814300537 8.026691436767578 14.49030113220215 7.06121826171875 C 13.31806755065918 4.640042304992676 10.91189384460449 3.217683076858521 8.394001007080078 3.18600058555603" transform="matrix(1,0,0,1,4.42711877822876,1.3210022449493408)" fill="none" stroke="#ffffff" stroke-width="1.5" stroke-linecap="square"/><path d="M 19.13089561462402 11.63526916503906 C 19.13256645202637 10.05116653442383 18.78405380249023 8.442049026489258 18.04870223999023 6.921307563781738 C 16.19446563720703 3.091108560562134 12.37927627563477 0.8483496904373169 8.394001007080078 0.8150001168251038" transform="matrix(1,0,0,1,4.230504035949707,-0.0815587192773819)" fill="none" stroke="#ffffff" stroke-width="1.5" stroke-linecap="square"/></g></svg>